<svg width="26" height="26" viewBox="0 0 26 26" fill="none" xmlns="http://www.w3.org/2000/svg">
<path d="M13.1165 3.16857L21.8657 13.3482L18.3038 12.8865L17.8621 12.8296L9.61252 19.92C9.19375 20.2799 8.56234 20.232 8.20232 19.8134L2.06228 12.6695C1.70229 12.2507 1.75001 11.6193 2.16885 11.2593L11.7063 3.06201C12.1252 2.70202 12.7566 2.74973 13.1165 3.16857Z" stroke="white" stroke-width="2" stroke-linecap="round"/>
<path d="M22.5 18.5947C23.0107 19.4959 23.5854 20.2338 24.0371 20.8379C24.7285 21.7627 25 22.2418 25 22.667C24.9998 23.9101 23.9271 25 22.5 25C21.0729 25 20.0002 23.9101 20 22.667C20 22.2418 20.2715 21.7627 20.9629 20.8379C21.4146 20.2338 21.9893 19.4959 22.5 18.5947Z" fill="white" stroke="white" stroke-width="2"/>
</svg>
