<svg width="26" height="26" viewBox="0 0 26 26" fill="none" xmlns="http://www.w3.org/2000/svg">
<g clip-path="url(#clip0_1_7178)">
<path d="M14.0879 6.01953C14.3637 6.01956 14.6157 6.12245 14.8086 6.32617C14.8114 6.32895 14.8147 6.33217 14.8174 6.33496C14.8205 6.33833 14.8241 6.3413 14.8271 6.34473C15.0145 6.5415 15.0996 6.78846 15.0996 7.04785C15.0995 7.31511 15.0091 7.57002 14.8096 7.76953C14.61 7.96902 14.3552 8.05955 14.0879 8.05957H8.7793V22C8.77926 22.2833 8.67283 22.538 8.47363 22.7373C8.27409 22.9368 8.01927 23.0283 7.75195 23.0283C7.48458 23.0283 7.22986 22.9369 7.03027 22.7373L7.01074 22.7178L6.99316 22.6963C6.83022 22.4926 6.75589 22.2515 6.75586 22V8.05957H1.6875C1.42023 8.05951 1.16533 7.96903 0.96582 7.76953L0.948242 7.75C0.766 7.54751 0.675781 7.2986 0.675781 7.03125C0.675849 6.76795 0.77071 6.52633 0.956055 6.33594C1.15016 6.12516 1.407 6.0196 1.6875 6.01953H14.0879ZM20.8848 14.3398C21.1829 14.3398 21.4489 14.4535 21.6553 14.666C21.6584 14.6692 21.6629 14.6726 21.666 14.6758C21.8701 14.8844 21.9736 15.1486 21.9736 15.4385C21.9735 15.7329 21.87 16.005 21.6562 16.2188L21.6514 16.2246L21.6465 16.2295C21.4347 16.4295 21.17 16.5273 20.8848 16.5273H18.2188V22C18.2187 22.2934 18.1124 22.559 17.9111 22.7715L17.9014 22.7812L17.9004 22.7803C17.6865 22.994 17.5407 23.0986 17.2461 23.0986C16.9518 23.0986 16.7719 22.9898 16.5646 22.7705L16.5548 22.7607C16.3635 22.5468 16.2668 22.2848 16.2668 22V16.5273H13.7217C13.4277 16.5273 13.1601 16.4198 12.9502 16.21L12.9404 16.2002C12.7392 15.9877 12.6329 15.7222 12.6328 15.4287C12.6328 15.1347 12.7403 14.8672 12.9502 14.6572C13.1602 14.4473 13.4276 14.3399 13.7217 14.3398H20.8848Z" fill="white"/>
<path d="M9.5 22C10.0523 22 10.5 22.4477 10.5 23C10.5 23.5523 10.0523 24 9.5 24H6C5.44772 24 5 23.5523 5 23C5 22.4477 5.44772 22 6 22H9.5ZM19 22C19.5523 22 20 22.4477 20 23C20 23.5523 19.5523 24 19 24H15.5C14.9477 24 14.5 23.5523 14.5 23C14.5 22.4477 14.9477 22 15.5 22H19ZM0.699219 8.5V7H2.69922V8.5C2.69922 9.05228 2.2515 9.5 1.69922 9.5C1.14693 9.5 0.699219 9.05228 0.699219 8.5Z" fill="white"/>
<path d="M13.0996 8.5V7H15.0996V8.5C15.0996 9.05228 14.6519 9.5 14.0996 9.5C13.5473 9.5 13.0996 9.05228 13.0996 8.5Z" fill="white"/>
<path d="M24 1V9C24 9.55229 23.5523 10 23 10C22.4477 10 22 9.55229 22 9V1C22 0.447715 22.4477 0 23 0C23.5523 0 24 0.447715 24 1Z" fill="white"/>
<path d="M23.4173 10.3675C23.2197 10.667 22.7803 10.667 22.5827 10.3675L20.0475 6.52537C19.8282 6.19294 20.0666 5.75 20.4648 5.75L25.5352 5.75C25.9334 5.75 26.1718 6.19294 25.9525 6.52537L23.4173 10.3675Z" fill="white"/>
</g>
<defs>
<clipPath id="clip0_1_7178">
<rect width="26" height="26" fill="white"/>
</clipPath>
</defs>
</svg>
