<svg width="26" height="26" viewBox="0 0 26 26" fill="none" xmlns="http://www.w3.org/2000/svg">
<g clip-path="url(#clip0_1_7168)">
<path d="M24 12.7998C24.6627 12.7998 25.2002 13.3373 25.2002 14V24C25.2002 24.6627 24.6627 25.2002 24 25.2002H8C7.33726 25.2002 6.7998 24.6627 6.7998 24V15.5C6.7998 14.8373 7.33726 14.2998 8 14.2998H18.75C19.5894 14.2998 20.2705 13.6328 20.2969 12.7998H24Z" stroke="white" stroke-width="1.6"/>
<path d="M2 0.799805H19C19.6627 0.799805 20.2002 1.33726 20.2002 2V13C20.2002 13.6627 19.6627 14.2002 19 14.2002H4.65918C3.6227 14.2002 2.70276 14.8634 2.375 15.8467C2.08514 16.7162 0.799805 16.5074 0.799805 15.5908V2C0.799805 1.33726 1.33726 0.799805 2 0.799805Z" stroke="white" stroke-width="1.6"/>
<path d="M6.36 10C6.26 9.99 6.16667 9.965 6.08 9.925C5.99333 9.885 5.91833 9.83167 5.855 9.765C5.79167 9.69833 5.74167 9.62167 5.705 9.535C5.66833 9.445 5.65 9.34833 5.65 9.245V4.37C5.65 4.26667 5.67 4.16833 5.71 4.075C5.75 3.98167 5.80333 3.9 5.87 3.83C5.94 3.76 6.02167 3.705 6.115 3.665C6.20833 3.62167 6.31 3.6 6.42 3.6H8.81C8.91667 3.6 9.01667 3.62 9.11 3.66C9.20333 3.7 9.28333 3.755 9.35 3.825C9.42 3.895 9.47333 3.97667 9.51 4.07C9.55 4.16333 9.57 4.26333 9.57 4.37C9.57 4.47667 9.55 4.57833 9.51 4.675C9.47333 4.76833 9.42 4.85 9.35 4.92C9.28333 4.99 9.20333 5.045 9.11 5.085C9.01667 5.125 8.91667 5.145 8.81 5.145H7.195V6.065H8.295C8.40167 6.06167 8.50167 6.08 8.595 6.12C8.68833 6.15667 8.77 6.21 8.84 6.28C8.91 6.35 8.965 6.43167 9.005 6.525C9.04833 6.61833 9.07 6.71833 9.07 6.825C9.07 6.93167 9.04833 7.03167 9.005 7.125C8.965 7.215 8.91 7.29333 8.84 7.36C8.77 7.42333 8.68833 7.47333 8.595 7.51C8.50167 7.54667 8.40167 7.565 8.295 7.565H7.195V8.46H8.81C8.91667 8.46 9.01667 8.48167 9.11 8.525C9.20333 8.565 9.28333 8.62 9.35 8.69C9.42 8.76 9.47333 8.84333 9.51 8.94C9.55 9.03333 9.57 9.13333 9.57 9.24C9.57 9.34667 9.55 9.44667 9.51 9.54C9.47333 9.63333 9.42 9.715 9.35 9.785C9.28333 9.855 9.20333 9.91 9.11 9.95C9.01667 9.98667 8.91667 10.0033 8.81 10H6.36ZM10.6556 5.285C10.809 5.285 10.9456 5.325 11.0656 5.405C11.1856 5.485 11.2756 5.58833 11.3356 5.715C11.5123 5.585 11.6956 5.48167 11.8856 5.405C12.079 5.32833 12.2706 5.29 12.4606 5.29C12.7573 5.29 13.019 5.35333 13.2456 5.48C13.4756 5.60667 13.6673 5.77833 13.8206 5.995C13.9773 6.20833 14.0956 6.455 14.1756 6.735C14.259 7.015 14.3006 7.31 14.3006 7.62V7.635V7.655V9.26C14.3006 9.36667 14.279 9.46667 14.2356 9.56C14.1956 9.65 14.1406 9.72833 14.0706 9.795C14.0006 9.86167 13.919 9.915 13.8256 9.955C13.7323 9.99167 13.634 10.01 13.5306 10.01C13.424 10.01 13.324 9.99167 13.2306 9.955C13.1373 9.915 13.0556 9.86167 12.9856 9.795C12.9156 9.72833 12.8606 9.65 12.8206 9.56C12.7806 9.46667 12.7606 9.36667 12.7606 9.26V7.65V7.62C12.7573 7.52333 12.744 7.42667 12.7206 7.33C12.7006 7.23333 12.6673 7.14833 12.6206 7.075C12.574 6.99833 12.514 6.93667 12.4406 6.89C12.3706 6.84333 12.284 6.82 12.1806 6.82C12.074 6.82 11.974 6.83833 11.8806 6.875C11.7873 6.91167 11.7056 6.96333 11.6356 7.03C11.5656 7.09667 11.5106 7.17667 11.4706 7.27C11.4306 7.36333 11.4106 7.465 11.4106 7.575V9.235C11.4106 9.34167 11.3906 9.44167 11.3506 9.535C11.3106 9.625 11.2556 9.705 11.1856 9.775C11.119 9.845 11.039 9.9 10.9456 9.94C10.8523 9.98 10.7523 10 10.6456 10C10.539 10 10.4373 9.98 10.3406 9.94C10.2473 9.9 10.1656 9.845 10.0956 9.775C10.0256 9.705 9.96896 9.625 9.92562 9.535C9.88562 9.44167 9.86562 9.34167 9.86562 9.235V6.05C9.86562 5.94667 9.88562 5.84833 9.92562 5.755C9.96896 5.66167 10.0256 5.58 10.0956 5.51C10.169 5.44 10.2523 5.385 10.3456 5.345C10.4423 5.305 10.5456 5.285 10.6556 5.285Z" fill="white"/>
<path d="M13.195 19.57V21.24C13.195 21.3467 13.175 21.4467 13.135 21.54C13.095 21.6333 13.04 21.715 12.97 21.785C12.9 21.8517 12.8167 21.905 12.72 21.945C12.6267 21.9817 12.5267 22 12.42 22C12.3133 22 12.2133 21.9817 12.12 21.945C12.0267 21.905 11.945 21.8517 11.875 21.785C11.805 21.715 11.75 21.6333 11.71 21.54C11.67 21.4467 11.65 21.3467 11.65 21.24V16.36C11.65 16.2533 11.67 16.155 11.71 16.065C11.75 15.9717 11.805 15.8917 11.875 15.825C11.945 15.755 12.0267 15.7 12.12 15.66C12.2133 15.62 12.3133 15.6 12.42 15.6H12.45H14.08C14.3533 15.6 14.6117 15.6533 14.855 15.76C15.0983 15.8667 15.31 16.0117 15.49 16.195C15.67 16.375 15.8117 16.5867 15.915 16.83C16.0217 17.07 16.075 17.325 16.075 17.595C16.075 17.8683 16.0217 18.125 15.915 18.365C15.8117 18.605 15.67 18.815 15.49 18.995C15.31 19.1717 15.0983 19.3117 14.855 19.415C14.6117 19.5183 14.3533 19.57 14.08 19.57H13.195ZM13.195 17.125V18.03H14.085C14.135 18.03 14.1867 18.0167 14.24 17.99C14.2933 17.9633 14.3417 17.9283 14.385 17.885C14.4283 17.8383 14.4633 17.7867 14.49 17.73C14.5167 17.67 14.53 17.61 14.53 17.55C14.53 17.4933 14.5167 17.44 14.49 17.39C14.4633 17.3367 14.4283 17.2917 14.385 17.255C14.3417 17.215 14.2933 17.1833 14.24 17.16C14.19 17.1367 14.14 17.125 14.09 17.125H13.195ZM19.3323 19.505L20.1423 17.75C20.1856 17.6533 20.2439 17.57 20.3173 17.5C20.3906 17.43 20.4723 17.3783 20.5623 17.345C20.6556 17.3083 20.7523 17.2917 20.8523 17.295C20.9556 17.295 21.0573 17.3167 21.1573 17.36C21.2539 17.4067 21.3373 17.4683 21.4073 17.545C21.4773 17.6183 21.5306 17.7017 21.5673 17.795C21.6039 17.885 21.6206 17.9817 21.6173 18.085C21.6173 18.1883 21.5939 18.29 21.5473 18.39L19.1923 23.325C19.1456 23.4217 19.0839 23.505 19.0073 23.575C18.9306 23.645 18.8456 23.6967 18.7523 23.73C18.6623 23.7667 18.5656 23.785 18.4623 23.785C18.3623 23.785 18.2639 23.7617 18.1673 23.715C18.0673 23.6717 17.9856 23.6133 17.9223 23.54C17.8623 23.47 17.8189 23.39 17.7923 23.3C17.7656 23.21 17.7573 23.115 17.7673 23.015C17.7773 22.915 17.8056 22.8133 17.8523 22.71L18.5123 21.28L17.1273 18.38C17.0806 18.2833 17.0573 18.185 17.0573 18.085C17.0573 17.9817 17.0739 17.8833 17.1073 17.79C17.1439 17.6967 17.1973 17.6133 17.2673 17.54C17.3373 17.4633 17.4206 17.4017 17.5173 17.355C17.6139 17.3117 17.7123 17.29 17.8123 17.29C17.9156 17.2867 18.0123 17.3033 18.1023 17.34C18.1956 17.3733 18.2789 17.425 18.3523 17.495C18.4256 17.565 18.4856 17.6483 18.5323 17.745L19.3323 19.505Z" fill="white"/>
</g>
<defs>
<clipPath id="clip0_1_7168">
<rect width="26" height="26" fill="white"/>
</clipPath>
</defs>
</svg>
