<svg width="26" height="26" viewBox="0 0 26 26" fill="none" xmlns="http://www.w3.org/2000/svg">
<g clip-path="url(#clip0_1_7162)">
<path d="M24 12.7998C24.6627 12.7998 25.2002 13.3373 25.2002 14V24C25.2002 24.6627 24.6627 25.2002 24 25.2002H8C7.33726 25.2002 6.7998 24.6627 6.7998 24V15.5C6.7998 14.8373 7.33726 14.2998 8 14.2998H18.75C19.5894 14.2998 20.2705 13.6328 20.2969 12.7998H24Z" stroke="white" stroke-width="1.6"/>
<path d="M2 0.799805H19C19.6627 0.799805 20.2002 1.33726 20.2002 2V13C20.2002 13.6627 19.6627 14.2002 19 14.2002H4.65918C3.6227 14.2002 2.70276 14.8634 2.375 15.8467C2.08514 16.7162 0.799805 16.5074 0.799805 15.5908V2C0.799805 1.33726 1.33726 0.799805 2 0.799805Z" stroke="white" stroke-width="1.6"/>
<path d="M7.195 7.57V9.24C7.195 9.34667 7.175 9.44667 7.135 9.54C7.095 9.63333 7.04 9.715 6.97 9.785C6.9 9.85167 6.81667 9.905 6.72 9.945C6.62667 9.98167 6.52667 10 6.42 10C6.31333 10 6.21333 9.98167 6.12 9.945C6.02667 9.905 5.945 9.85167 5.875 9.785C5.805 9.715 5.75 9.63333 5.71 9.54C5.67 9.44667 5.65 9.34667 5.65 9.24V4.36C5.65 4.25333 5.67 4.155 5.71 4.065C5.75 3.97167 5.805 3.89167 5.875 3.825C5.945 3.755 6.02667 3.7 6.12 3.66C6.21333 3.62 6.31333 3.6 6.42 3.6H6.45H8.08C8.35333 3.6 8.61167 3.65333 8.855 3.76C9.09833 3.86667 9.31 4.01167 9.49 4.195C9.67 4.375 9.81167 4.58667 9.915 4.83C10.0217 5.07 10.075 5.325 10.075 5.595C10.075 5.86833 10.0217 6.125 9.915 6.365C9.81167 6.605 9.67 6.815 9.49 6.995C9.31 7.17167 9.09833 7.31167 8.855 7.415C8.61167 7.51833 8.35333 7.57 8.08 7.57H7.195ZM7.195 5.125V6.03H8.085C8.135 6.03 8.18667 6.01667 8.24 5.99C8.29333 5.96333 8.34167 5.92833 8.385 5.885C8.42833 5.83833 8.46333 5.78667 8.49 5.73C8.51667 5.67 8.53 5.61 8.53 5.55C8.53 5.49333 8.51667 5.44 8.49 5.39C8.46333 5.33667 8.42833 5.29167 8.385 5.255C8.34167 5.215 8.29333 5.18333 8.24 5.16C8.19 5.13667 8.14 5.125 8.09 5.125H7.195ZM12.9323 7.505L13.7423 5.75C13.7856 5.65333 13.8439 5.57 13.9173 5.5C13.9906 5.43 14.0723 5.37833 14.1623 5.345C14.2556 5.30833 14.3523 5.29167 14.4523 5.295C14.5556 5.295 14.6573 5.31667 14.7573 5.36C14.8539 5.40667 14.9373 5.46833 15.0073 5.545C15.0773 5.61833 15.1306 5.70167 15.1673 5.795C15.2039 5.885 15.2206 5.98167 15.2173 6.085C15.2173 6.18833 15.1939 6.29 15.1473 6.39L12.7923 11.325C12.7456 11.4217 12.6839 11.505 12.6073 11.575C12.5306 11.645 12.4456 11.6967 12.3523 11.73C12.2623 11.7667 12.1656 11.785 12.0623 11.785C11.9623 11.785 11.8639 11.7617 11.7673 11.715C11.6673 11.6717 11.5856 11.6133 11.5223 11.54C11.4623 11.47 11.4189 11.39 11.3923 11.3C11.3656 11.21 11.3573 11.115 11.3673 11.015C11.3773 10.915 11.4056 10.8133 11.4523 10.71L12.1123 9.28L10.7273 6.38C10.6806 6.28333 10.6573 6.185 10.6573 6.085C10.6573 5.98167 10.6739 5.88333 10.7073 5.79C10.7439 5.69667 10.7973 5.61333 10.8673 5.54C10.9373 5.46333 11.0206 5.40167 11.1173 5.355C11.2139 5.31167 11.3123 5.29 11.4123 5.29C11.5156 5.28667 11.6123 5.30333 11.7023 5.34C11.7956 5.37333 11.8789 5.425 11.9523 5.495C12.0256 5.565 12.0856 5.64833 12.1323 5.745L12.9323 7.505Z" fill="white"/>
<path d="M12.36 22C12.26 21.99 12.1667 21.965 12.08 21.925C11.9933 21.885 11.9183 21.8317 11.855 21.765C11.7917 21.6983 11.7417 21.6217 11.705 21.535C11.6683 21.445 11.65 21.3483 11.65 21.245V16.37C11.65 16.2667 11.67 16.1683 11.71 16.075C11.75 15.9817 11.8033 15.9 11.87 15.83C11.94 15.76 12.0217 15.705 12.115 15.665C12.2083 15.6217 12.31 15.6 12.42 15.6H14.81C14.9167 15.6 15.0167 15.62 15.11 15.66C15.2033 15.7 15.2833 15.755 15.35 15.825C15.42 15.895 15.4733 15.9767 15.51 16.07C15.55 16.1633 15.57 16.2633 15.57 16.37C15.57 16.4767 15.55 16.5783 15.51 16.675C15.4733 16.7683 15.42 16.85 15.35 16.92C15.2833 16.99 15.2033 17.045 15.11 17.085C15.0167 17.125 14.9167 17.145 14.81 17.145H13.195V18.065H14.295C14.4017 18.0617 14.5017 18.08 14.595 18.12C14.6883 18.1567 14.77 18.21 14.84 18.28C14.91 18.35 14.965 18.4317 15.005 18.525C15.0483 18.6183 15.07 18.7183 15.07 18.825C15.07 18.9317 15.0483 19.0317 15.005 19.125C14.965 19.215 14.91 19.2933 14.84 19.36C14.77 19.4233 14.6883 19.4733 14.595 19.51C14.5017 19.5467 14.4017 19.565 14.295 19.565H13.195V20.46H14.81C14.9167 20.46 15.0167 20.4817 15.11 20.525C15.2033 20.565 15.2833 20.62 15.35 20.69C15.42 20.76 15.4733 20.8433 15.51 20.94C15.55 21.0333 15.57 21.1333 15.57 21.24C15.57 21.3467 15.55 21.4467 15.51 21.54C15.4733 21.6333 15.42 21.715 15.35 21.785C15.2833 21.855 15.2033 21.91 15.11 21.95C15.0167 21.9867 14.9167 22.0033 14.81 22H12.36ZM17.0556 17.285C17.209 17.285 17.3456 17.325 17.4656 17.405C17.5856 17.485 17.6756 17.5883 17.7356 17.715C17.9123 17.585 18.0956 17.4817 18.2856 17.405C18.479 17.3283 18.6706 17.29 18.8606 17.29C19.1573 17.29 19.419 17.3533 19.6456 17.48C19.8756 17.6067 20.0673 17.7783 20.2206 17.995C20.3773 18.2083 20.4956 18.455 20.5756 18.735C20.659 19.015 20.7006 19.31 20.7006 19.62V19.635V19.655V21.26C20.7006 21.3667 20.679 21.4667 20.6356 21.56C20.5956 21.65 20.5406 21.7283 20.4706 21.795C20.4006 21.8617 20.319 21.915 20.2256 21.955C20.1323 21.9917 20.034 22.01 19.9306 22.01C19.824 22.01 19.724 21.9917 19.6306 21.955C19.5373 21.915 19.4556 21.8617 19.3856 21.795C19.3156 21.7283 19.2606 21.65 19.2206 21.56C19.1806 21.4667 19.1606 21.3667 19.1606 21.26V19.65V19.62C19.1573 19.5233 19.144 19.4267 19.1206 19.33C19.1006 19.2333 19.0673 19.1483 19.0206 19.075C18.974 18.9983 18.914 18.9367 18.8406 18.89C18.7706 18.8433 18.684 18.82 18.5806 18.82C18.474 18.82 18.374 18.8383 18.2806 18.875C18.1873 18.9117 18.1056 18.9633 18.0356 19.03C17.9656 19.0967 17.9106 19.1767 17.8706 19.27C17.8306 19.3633 17.8106 19.465 17.8106 19.575V21.235C17.8106 21.3417 17.7906 21.4417 17.7506 21.535C17.7106 21.625 17.6556 21.705 17.5856 21.775C17.519 21.845 17.439 21.9 17.3456 21.94C17.2523 21.98 17.1523 22 17.0456 22C16.939 22 16.8373 21.98 16.7406 21.94C16.6473 21.9 16.5656 21.845 16.4956 21.775C16.4256 21.705 16.369 21.625 16.3256 21.535C16.2856 21.4417 16.2656 21.3417 16.2656 21.235V18.05C16.2656 17.9467 16.2856 17.8483 16.3256 17.755C16.369 17.6617 16.4256 17.58 16.4956 17.51C16.569 17.44 16.6523 17.385 16.7456 17.345C16.8423 17.305 16.9456 17.285 17.0556 17.285Z" fill="white"/>
</g>
<defs>
<clipPath id="clip0_1_7162">
<rect width="26" height="26" fill="white"/>
</clipPath>
</defs>
</svg>
