<svg width="26" height="26" viewBox="0 0 26 26" fill="none" xmlns="http://www.w3.org/2000/svg">
<rect x="4" y="10" width="18" height="12" rx="1" stroke="white" stroke-width="2"/>
<path d="M7 9.5C7 8.63719 7.15868 7.78426 7.46557 6.99047C7.77242 6.19673 8.22057 5.47981 8.78131 4.87902C9.34191 4.27837 10.0037 3.80588 10.7269 3.48493C11.4498 3.16408 12.222 3 13 3C13.778 3 14.5502 3.16408 15.2731 3.48493C15.9963 3.80588 16.6581 4.27837 17.2187 4.87902C17.7794 5.47981 18.2276 6.19673 18.5344 6.99046C18.8413 7.78426 19 8.63719 19 9.5" stroke="white" stroke-width="2"/>
<path d="M13 13C14.1046 13 15 13.8954 15 15C15 15.5328 14.791 16.0159 14.4509 16.3737C14.2052 16.6322 14 16.9491 14 17.3058V18C14 18.5523 13.5523 19 13 19C12.4477 19 12 18.5523 12 18V17.3058C12 16.9491 11.7948 16.6322 11.5491 16.3737C11.209 16.0159 11 15.5328 11 15C11 13.8954 11.8954 13 13 13Z" fill="white"/>
</svg>
