<svg width="26" height="26" viewBox="0 0 26 26" fill="none" xmlns="http://www.w3.org/2000/svg">
<rect x="4" y="10" width="18" height="12" rx="1" stroke="white" stroke-width="2"/>
<path d="M7.96515 5.96564C8.67448 4.78018 9.71495 3.8862 10.9202 3.40333C12.1241 2.92102 13.4377 2.87018 14.6689 3.25672C15.9013 3.64365 16.997 4.45231 17.783 5.57672C18.5697 6.70203 19 8.07854 19 9.5" stroke="white" stroke-width="2" stroke-linecap="round"/>
<path d="M13 13C14.1046 13 15 13.8954 15 15C15 15.5328 14.791 16.0159 14.4509 16.3737C14.2052 16.6322 14 16.9491 14 17.3058V18C14 18.5523 13.5523 19 13 19C12.4477 19 12 18.5523 12 18V17.3058C12 16.9491 11.7948 16.6322 11.5491 16.3737C11.209 16.0159 11 15.5328 11 15C11 13.8954 11.8954 13 13 13ZM13 14C12.4477 14 12 14.4477 12 15C12 15.5523 12.4477 16 13 16C13.5523 16 14 15.5523 14 15C14 14.4477 13.5523 14 13 14Z" fill="white"/>
</svg>
