<svg width="26" height="26" viewBox="0 0 26 26" fill="none" xmlns="http://www.w3.org/2000/svg">
<mask id="path-1-inside-1_1_7157" fill="white">
<path fill-rule="evenodd" clip-rule="evenodd" d="M9.04601 1.48285C9.87209 1.24587 10.4653 2.19058 10.1042 2.97044C9.39598 4.50002 9 6.20353 9 7.99999C9.00013 14.6273 14.3727 20 21 20C21.0384 20 21.0768 19.9998 21.1152 19.9994C21.9747 19.9911 22.5909 20.9199 22.0352 21.5756C19.7432 24.2804 16.3233 25.998 12.5 25.998C5.59644 25.998 0 20.4016 0 13.498C0.00021137 7.7929 3.82257 2.98134 9.04601 1.48285Z"/>
</mask>
<path d="M9 7.99999H7V8.00002L9 7.99999ZM0 13.498L-2 13.498V13.498H0ZM21.1152 19.9994L21.0959 17.9995L21.1152 19.9994ZM22.0352 21.5756L20.5094 20.2826L22.0352 21.5756ZM10.1042 2.97044L8.28933 2.13009C7.46192 3.91704 7 5.90675 7 7.99999H9H11C11 6.50031 11.33 5.08301 11.9191 3.81078L10.1042 2.97044ZM9 7.99999L7 8.00002C7.00015 15.7318 13.2681 22 21 22V20V18C15.4773 18 11.0001 13.5228 11 7.99995L9 7.99999ZM21 20V22C21.0449 22 21.0897 21.9998 21.1345 21.9993L21.1152 19.9994L21.0959 17.9995C21.064 17.9998 21.032 18 21 18V20ZM22.0352 21.5756L20.5094 20.2826C18.5807 22.5586 15.7102 23.998 12.5 23.998V25.998V27.998C16.9364 27.998 20.9057 26.0022 23.561 22.8686L22.0352 21.5756ZM12.5 25.998V23.998C6.70101 23.998 2 19.297 2 13.498H0H-2C-2 21.5062 4.49187 27.998 12.5 27.998V25.998ZM0 13.498L2 13.4981C2.00018 8.70886 5.20857 4.6644 9.59752 3.40531L9.04601 1.48285L8.4945 -0.439603C2.43657 1.29828 -1.99975 6.87693 -2 13.498L0 13.498ZM21.1152 19.9994L21.1345 21.9993C20.8334 22.0022 20.5611 21.8452 20.401 21.5841C20.3149 21.4437 20.2381 21.2346 20.2482 20.9741C20.259 20.6961 20.3662 20.4516 20.5094 20.2826L22.0352 21.5756L23.561 22.8686C24.4755 21.7895 24.3879 20.4339 23.8108 19.4929C23.2666 18.6056 22.2565 17.9883 21.0959 17.9995L21.1152 19.9994ZM10.1042 2.97044L11.9191 3.81078C12.4069 2.75722 12.2593 1.58259 11.675 0.721887C11.0552 -0.190852 9.85557 -0.830061 8.4945 -0.439603L9.04601 1.48285L9.59752 3.40531C9.38404 3.46655 9.11654 3.46355 8.85854 3.35884C8.61678 3.26073 8.45796 3.10472 8.36565 2.96877C8.19413 2.71614 8.1626 2.40379 8.28933 2.13009L10.1042 2.97044Z" fill="white" mask="url(#path-1-inside-1_1_7157)"/>
<path d="M19 1C19.4332 1 19.8173 1.27938 19.9512 1.69141L20.8486 4.45508H23.7549C24.188 4.45508 24.5721 4.73372 24.7061 5.14551C24.8399 5.55753 24.6933 6.00903 24.3428 6.26367L21.9912 7.97168L22.8896 10.7363C23.0234 11.1483 22.8768 11.5999 22.5264 11.8545C22.1761 12.1087 21.7019 12.1087 21.3516 11.8545L19 10.1455L16.6484 11.8545C16.2981 12.1087 15.8239 12.1087 15.4736 11.8545C15.1232 11.5999 14.9766 11.1483 15.1104 10.7363L16.0078 7.97168L13.6572 6.26367C13.3067 6.00903 13.1601 5.55753 13.2939 5.14551C13.4279 4.73372 13.812 4.45508 14.2451 4.45508H17.1514L18.0488 1.69141C18.1827 1.27938 18.5668 1 19 1Z" stroke="white" stroke-width="2" stroke-linejoin="round"/>
</svg>
