<svg width="26" height="26" viewBox="0 0 26 26" fill="none" xmlns="http://www.w3.org/2000/svg">
<g clip-path="url(#clip0_1_7182)">
<path d="M1.24268 1.24266L6 5.99998" stroke="white" stroke-width="2" stroke-linecap="round"/>
<path d="M-0.0194342 0.57077C-0.0914763 0.219248 0.219249 -0.0914764 0.57077 -0.0194342L5.08019 0.904742C5.47036 0.984704 5.61498 1.46649 5.33336 1.74812L1.74811 5.33336C1.46649 5.61498 0.984703 5.47036 0.904742 5.08019L-0.0194342 0.57077Z" fill="white"/>
<rect x="6" y="5.99999" width="14" height="14" stroke="white" stroke-width="2"/>
<path d="M1.24276 24.4854L6.00024 20" stroke="white" stroke-width="2" stroke-linecap="round"/>
<path d="M-0.0194342 25.1573C-0.0914763 25.5088 0.219249 25.8195 0.57077 25.7475L5.08019 24.8233C5.47036 24.7434 5.61498 24.2616 5.33336 23.98L1.74811 20.3947C1.46649 20.1131 0.984703 20.2577 0.904742 20.6479L-0.0194342 25.1573Z" fill="white"/>
<path d="M24.4849 24.4854L20 20" stroke="white" stroke-width="2" stroke-linecap="round"/>
<path d="M25.747 25.1573C25.819 25.5088 25.5083 25.8195 25.1568 25.7475L20.6473 24.8233C20.2572 24.7434 20.1126 24.2616 20.3942 23.98L23.9794 20.3947C24.261 20.1131 24.7428 20.2577 24.8228 20.6479L25.747 25.1573Z" fill="white"/>
<path d="M24.4849 1.24264L20 5.99999" stroke="white" stroke-width="2" stroke-linecap="round"/>
<path d="M25.747 0.57077C25.819 0.219248 25.5083 -0.0914764 25.1568 -0.0194342L20.6473 0.904742C20.2572 0.984704 20.1126 1.46649 20.3942 1.74812L23.9794 5.33336C24.261 5.61498 24.7428 5.47036 24.8228 5.08019L25.747 0.57077Z" fill="white"/>
</g>
<defs>
<clipPath id="clip0_1_7182">
<rect width="26" height="26" fill="white"/>
</clipPath>
</defs>
</svg>
