<svg width="26" height="26" viewBox="0 0 26 26" fill="none" xmlns="http://www.w3.org/2000/svg">
<g clip-path="url(#clip0_1_7196)">
<rect x="7" y="6.99999" width="12" height="12" stroke="white" stroke-width="2"/>
<path d="M6.58569 6.58576L1.82837 1.82843" stroke="white" stroke-width="2" stroke-linecap="round"/>
<path d="M7.8478 7.25766C7.91985 7.60918 7.60912 7.9199 7.2576 7.84786L2.74818 6.92368C2.35801 6.84372 2.21339 6.36193 2.49501 6.08031L6.08026 2.49507C6.36188 2.21344 6.84367 2.35807 6.92363 2.74823L7.8478 7.25766Z" fill="white"/>
<path d="M6.48527 19.2428L1.72778 23.7283" stroke="white" stroke-width="2" stroke-linecap="round"/>
<path d="M7.74746 18.5709C7.8195 18.2194 7.50878 17.9087 7.15726 17.9807L2.64783 18.9049C2.25767 18.9849 2.11304 19.4667 2.39467 19.7483L5.97991 23.3335C6.26153 23.6151 6.74332 23.4705 6.82329 23.0804L7.74746 18.5709Z" fill="white"/>
<path d="M19.2428 19.2426L24.0002 23.7281" stroke="white" stroke-width="2" stroke-linecap="round"/>
<path d="M17.9806 18.5708C17.9085 18.2192 18.2192 17.9085 18.5708 17.9806L23.0802 18.9047C23.4704 18.9847 23.615 19.4665 23.3334 19.7481L19.7481 23.3334C19.4665 23.615 18.9847 23.4704 18.9047 23.0802L17.9806 18.5708Z" fill="white"/>
<path d="M19.2422 6.48529L23.7271 1.72794" stroke="white" stroke-width="2" stroke-linecap="round"/>
<path d="M17.9801 7.15716C17.908 7.50868 18.2188 7.8194 18.5703 7.74736L23.0797 6.82319C23.4699 6.74322 23.6145 6.26143 23.3329 5.97981L19.7476 2.39457C19.466 2.11295 18.9842 2.25757 18.9043 2.64774L17.9801 7.15716Z" fill="white"/>
</g>
<defs>
<clipPath id="clip0_1_7196">
<rect width="26" height="26" fill="white"/>
</clipPath>
</defs>
</svg>
