<svg width="26" height="26" viewBox="0 0 26 26" fill="none" xmlns="http://www.w3.org/2000/svg">
<path d="M15.6 23C15.8209 23 16.0027 23.1799 15.9734 23.3988C15.9389 23.6557 15.8712 23.9076 15.7716 24.1481C15.6209 24.512 15.3999 24.8427 15.1213 25.1213C14.8427 25.3999 14.512 25.6209 14.1481 25.7716C13.7841 25.9224 13.394 26 13 26C12.606 26 12.2159 25.9224 11.8519 25.7716C11.488 25.6209 11.1573 25.3999 10.8787 25.1213C10.6001 24.8427 10.3791 24.512 10.2284 24.1481C10.1288 23.9076 10.0611 23.6557 10.0266 23.3988C9.99726 23.1799 10.1791 23 10.4 23L13 23H15.6Z" fill="white"/>
<path d="M13 1C17.4183 1 21 4.58172 21 9C21 12.2594 19.0506 15.0657 16.25 16.3125C15.544 16.6268 15 17.3325 15 18.1953V20H11V18.1953C11 17.3325 10.456 16.6268 9.75 16.3125C6.9494 15.0657 5 12.2594 5 9C5 4.58172 8.58172 1 13 1Z" stroke="white" stroke-width="2"/>
</svg>
