<svg width="26" height="26" viewBox="0 0 26 26" fill="none" xmlns="http://www.w3.org/2000/svg">
<g clip-path="url(#clip0_92_15280)">
<path d="M13 9.5L25 5M13 9.5V25M13 9.5L1 5M1 5V20.5L13 25L25 20.5V5L13 1L1 5Z" stroke="#EDEDED" stroke-width="2" stroke-linecap="round" stroke-linejoin="round"/>
<path d="M12.9744 10.2666L12.5446 23.161C12.5224 23.8292 11.8633 24.2878 11.229 24.0763L1.23468 20.7449C0.802162 20.6007 0.521914 20.1822 0.553282 19.7274L1.41353 7.2538C1.45777 6.61232 2.08718 6.17871 2.70232 6.36592L12.2662 9.27666C12.699 9.4084 12.9895 9.81441 12.9744 10.2666Z" fill="#EDEDED"/>
<g clip-path="url(#clip1_92_15280)">
<path d="M24.9999 25L18.5811 22.6143" stroke="#EDEDED" stroke-width="1.5"/>
<path d="M25.9967 25.4987C25.9967 25.7748 25.7728 25.9987 25.4967 25.9987L21.5789 25.9987C21.0307 25.9987 20.8821 25.2438 21.3893 25.036L25.3072 23.4311C25.6361 23.2963 25.9967 23.5383 25.9967 23.8938L25.9967 25.4987Z" fill="#EDEDED"/>
</g>
</g>
<defs>
<clipPath id="clip0_92_15280">
<rect width="26" height="26" fill="white"/>
</clipPath>
<clipPath id="clip1_92_15280">
<rect width="7" height="4" fill="white" transform="translate(19 22)"/>
</clipPath>
</defs>
</svg>
