<svg width="26" height="26" viewBox="0 0 26 26" fill="none" xmlns="http://www.w3.org/2000/svg">
<g clip-path="url(#clip0_92_15283)">
<path d="M11.6849 1.43666L1.63777 4.7726C1.22886 4.90837 0.952881 5.29079 0.952881 5.72165V18.6143C0.952881 19.2964 1.62068 19.7783 2.268 19.5633L12.3151 16.2274C12.724 16.0916 13 15.7092 13 15.2783V2.38571C13 1.70365 12.3322 1.22173 11.6849 1.43666Z" fill="#EDEDED"/>
<path d="M13 9.5L25 5M13 9.5V25M13 9.5L1 5M1 5V20.5L13 25L25 20.5V5L13 1L1 5Z" stroke="#EDEDED" stroke-width="2" stroke-linecap="round" stroke-linejoin="round"/>
<path d="M1 20L13 16M13 16L25 20M13 16V2" stroke="#EDEDED" stroke-width="1.6" stroke-dasharray="1.8 1.8"/>
<g clip-path="url(#clip1_92_15283)">
<path d="M24.9999 25L18.5811 22.6143" stroke="#EDEDED" stroke-width="1.5"/>
<path d="M25.9967 25.4987C25.9967 25.7748 25.7728 25.9987 25.4967 25.9987L21.5789 25.9987C21.0307 25.9987 20.8821 25.2438 21.3893 25.036L25.3072 23.4311C25.6361 23.2963 25.9967 23.5383 25.9967 23.8938L25.9967 25.4987Z" fill="#EDEDED"/>
</g>
</g>
<defs>
<clipPath id="clip0_92_15283">
<rect width="26" height="26" fill="white"/>
</clipPath>
<clipPath id="clip1_92_15283">
<rect width="7" height="4" fill="white" transform="translate(19 22)"/>
</clipPath>
</defs>
</svg>
