<svg width="26" height="26" viewBox="0 0 26 26" fill="none" xmlns="http://www.w3.org/2000/svg">
<g clip-path="url(#clip0_92_15284)">
<path d="M22.3319 19.1071L13.3632 16.1058C13.158 16.0371 12.9361 16.0369 12.7308 16.105L1 20L12.6958 24.3688C12.9223 24.4534 13.1718 24.4531 13.3981 24.3679L22.3669 20.9913C23.2477 20.6597 23.2244 19.4058 22.3319 19.1071Z" fill="#EDEDED"/>
<path d="M13.0471 9.5L25.0471 5M13.0471 9.5V25M13.0471 9.5L1.04712 5M1.04712 5V20.5L13.0471 25L25.0471 20.5V5L13.0471 1L1.04712 5Z" stroke="#EDEDED" stroke-width="2" stroke-linecap="round" stroke-linejoin="round"/>
<path d="M1 20L13.0471 16M13.0471 16L25.0471 20M13.0471 16V2" stroke="#EDEDED" stroke-width="1.6" stroke-dasharray="1.8 1.8"/>
<g clip-path="url(#clip1_92_15284)">
<path d="M25.0472 25L18.6284 22.6143" stroke="#EDEDED" stroke-width="1.5"/>
<path d="M26.0438 25.4987C26.0438 25.7748 25.8199 25.9987 25.5438 25.9987L21.626 25.9987C21.0778 25.9987 20.9292 25.2438 21.4365 25.036L25.3543 23.4311C25.6832 23.2963 26.0438 23.5383 26.0438 23.8938L26.0438 25.4987Z" fill="#EDEDED"/>
</g>
</g>
<defs>
<clipPath id="clip0_92_15284">
<rect width="26" height="26" fill="white"/>
</clipPath>
<clipPath id="clip1_92_15284">
<rect width="7" height="4" fill="white" transform="translate(19.0471 22)"/>
</clipPath>
</defs>
</svg>
