<svg width="26" height="26" viewBox="0 0 26 26" fill="none" xmlns="http://www.w3.org/2000/svg">
<path d="M13 2C19.0751 2 24 6.92487 24 13C24 19.0751 19.0751 24 13 24C6.92487 24 2 19.0751 2 13C2 6.92487 6.92487 2 13 2Z" stroke="white" stroke-width="2"/>
<path d="M15 18.3281C15 18.5567 14.9451 18.7746 14.8354 18.9818C14.7342 19.1819 14.5907 19.357 14.4051 19.507C14.2278 19.657 14.0169 19.7785 13.7722 19.8714C13.5359 19.9571 13.2869 20 13.0253 20C12.7553 20 12.4979 19.9571 12.2532 19.8714C12.0169 19.7785 11.8101 19.657 11.6329 19.507C11.4557 19.357 11.3122 19.1819 11.2025 18.9818C11.1013 18.7746 11.0506 18.5567 11.0506 18.3281C11.0506 18.1066 11.1013 17.8958 11.2025 17.6958C11.3122 17.4886 11.4557 17.3099 11.6329 17.1599C11.8101 17.0027 12.0169 16.8812 12.2532 16.7955C12.4979 16.7026 12.7553 16.6562 13.0253 16.6562C13.2869 16.6562 13.5359 16.7026 13.7722 16.7955C14.0169 16.8812 14.2278 17.0027 14.4051 17.1599C14.5907 17.3099 14.7342 17.4886 14.8354 17.6958C14.9451 17.8958 15 18.1066 15 18.3281ZM11 7.68263C11 7.44685 11.0506 7.22893 11.1519 7.02887C11.2532 6.82167 11.3924 6.64304 11.5696 6.493C11.7468 6.33581 11.9536 6.21435 12.1899 6.12861C12.4346 6.04287 12.692 6 12.962 6C13.2321 6 13.4852 6.04287 13.7215 6.12861C13.9578 6.21435 14.1646 6.33581 14.3418 6.493C14.519 6.64304 14.6582 6.82167 14.7595 7.02887C14.8608 7.22893 14.9114 7.44685 14.9114 7.68263V13.9635C14.9114 14.1993 14.8608 14.4208 14.7595 14.628C14.6582 14.8281 14.5148 15.0031 14.3291 15.1532C14.1519 15.3032 13.9409 15.4211 13.6962 15.5069C13.4599 15.5926 13.2025 15.6355 12.9241 15.6355C12.654 15.6355 12.4008 15.5926 12.1646 15.5069C11.9367 15.4211 11.7342 15.3032 11.557 15.1532C11.3882 15.0031 11.2532 14.8281 11.1519 14.628C11.0506 14.4208 11 14.1993 11 13.9635V7.68263Z" fill="white"/>
</svg>
