<svg width="98" height="114" viewBox="0 0 98 114" fill="none" xmlns="http://www.w3.org/2000/svg">
<path d="M71.0977 2L96 30.2549V112H2V2H71.0977Z" stroke="white" stroke-width="4"/>
<g clip-path="url(#clip0_78_21494)">
<g clip-path="url(#clip1_78_21494)">
<path d="M61.4478 66.6597C61.6687 66.6597 61.8505 66.8396 61.8207 67.0585C61.7866 67.3095 61.7202 67.5557 61.6228 67.7908C61.4742 68.1494 61.2565 68.4752 60.9821 68.7497C60.7076 69.0241 60.3818 69.2418 60.0232 69.3904C59.6646 69.5389 59.2803 69.6153 58.8921 69.6153C58.504 69.6153 58.1197 69.5389 57.7611 69.3904C57.4025 69.2418 57.0767 69.0241 56.8022 68.7497C56.5277 68.4752 56.31 68.1494 56.1615 67.7908C56.0641 67.5557 55.9977 67.3095 55.9635 67.0585C55.9337 66.8396 56.1156 66.6597 56.3365 66.6597L58.8921 66.6597H61.4478Z" fill="white"/>
<path d="M58.8926 45.5C62.961 45.5002 66.2588 48.7987 66.2588 52.8672C66.2587 55.7709 64.5788 58.2851 62.1318 59.4854L61.8926 59.5977C61.0293 59.9833 60.3477 60.8541 60.3477 61.9365V63.1895H57.4365V61.9365C57.4365 60.8539 56.755 59.9833 55.8916 59.5977C53.3157 58.4472 51.5255 55.8645 51.5254 52.8672C51.5254 48.7986 54.824 45.5 58.8926 45.5Z" stroke="white" stroke-width="3"/>
</g>
<path d="M41.6729 67.629L50.9229 64.1602M41.6729 67.629V79.5769M41.6729 67.629L32.4229 64.1602M32.4229 64.1602V76.1082L41.6729 79.5769L50.9229 75.7227V64.1602L41.6729 61.0769L32.4229 64.1602Z" stroke="white" stroke-width="4" stroke-linecap="round" stroke-linejoin="round"/>
<path d="M32.4229 53.9616V45.4231H40.9613" stroke="white" stroke-width="4" stroke-linecap="round" stroke-linejoin="round"/>
<path d="M66.5771 71.0384L66.5771 79.5769L58.0387 79.5769" stroke="white" stroke-width="4" stroke-linecap="round" stroke-linejoin="round"/>
</g>
<defs>
<clipPath id="clip0_78_21494">
<rect width="37" height="37" fill="white" transform="translate(31 44)"/>
</clipPath>
<clipPath id="clip1_78_21494">
<rect width="25.6154" height="25.6154" fill="white" transform="translate(46.0845 44)"/>
</clipPath>
</defs>
</svg>
