<svg width="26" height="26" viewBox="0 0 26 26" fill="none" xmlns="http://www.w3.org/2000/svg">
<circle cx="13.0001" cy="13" r="8.4222" stroke="white" stroke-width="2"/>
<mask id="path-2-inside-1_97_17016" fill="white">
<path d="M17.9095 10.0606C19.6628 9.01084 22.0221 9.60039 22.3209 11.6219C22.5019 12.8459 22.44 14.0936 22.1388 15.2938C21.8376 16.4939 21.3029 17.6229 20.5654 18.6164C19.8278 19.6099 18.9018 20.4484 17.8402 21.084C16.7786 21.7196 15.6022 22.1399 14.3782 22.3209C13.1541 22.5018 11.9064 22.44 10.7063 22.1387C9.5062 21.8375 8.37716 21.3029 7.38367 20.5653C5.74291 19.3472 6.33738 16.9891 8.09064 15.9394L13.0001 13L17.9095 10.0606Z"/>
</mask>
<path d="M17.9095 10.0606C19.6628 9.01084 22.0221 9.60039 22.3209 11.6219C22.5019 12.8459 22.44 14.0936 22.1388 15.2938C21.8376 16.4939 21.3029 17.6229 20.5654 18.6164C19.8278 19.6099 18.9018 20.4484 17.8402 21.084C16.7786 21.7196 15.6022 22.1399 14.3782 22.3209C13.1541 22.5018 11.9064 22.44 10.7063 22.1387C9.5062 21.8375 8.37716 21.3029 7.38367 20.5653C5.74291 19.3472 6.33738 16.9891 8.09064 15.9394L13.0001 13L17.9095 10.0606Z" fill="white" stroke="white" stroke-width="4" mask="url(#path-2-inside-1_97_17016)"/>
</svg>
