<svg width="26" height="26" viewBox="0 0 26 26" fill="none" xmlns="http://www.w3.org/2000/svg">
<path d="M4 16.5V9C4 8.44772 4.44772 8 5 8C5.55228 8 6 8.44772 6 9V16.5C6 17.0523 5.55228 17.5 5 17.5C4.44772 17.5 4 17.0523 4 16.5Z" stroke="#A2A2A2" stroke-width="2" stroke-linecap="round"/>
<path d="M16.4602 2.4948L5.80417 12.2628C5.3718 12.6592 5.3718 13.3408 5.80417 13.7372L16.4602 23.5052C16.7383 23.7601 17.1806 23.6944 17.3725 23.3696C21.1522 16.9732 21.1522 9.02684 17.3725 2.63041C17.1806 2.3056 16.7383 2.23986 16.4602 2.4948Z" stroke="#A2A2A2" stroke-width="2" stroke-linecap="round"/>
</svg>
