<svg width="26" height="26" viewBox="0 0 26 26" fill="none" xmlns="http://www.w3.org/2000/svg">
<path d="M2.75 16.5V9C2.75 8.44772 3.19772 8 3.75 8C4.30228 8 4.75 8.44772 4.75 9V16.5C4.75 17.0523 4.30228 17.5 3.75 17.5C3.19772 17.5 2.75 17.0523 2.75 16.5Z" stroke="#A2A2A2" stroke-width="2" stroke-linecap="round"/>
<path d="M17.41 4.20399L4.17915 12.1425C3.53182 12.5309 3.53182 13.4691 4.17916 13.8575L17.41 21.796C17.6023 21.9114 17.8509 21.8603 17.9821 21.6786C21.7238 16.4978 21.7238 9.5022 17.9821 4.32142C17.8509 4.13965 17.6023 4.08863 17.41 4.20399Z" stroke="#A2A2A2" stroke-width="2" stroke-linecap="round"/>
</svg>
