<svg width="26" height="26" viewBox="0 0 26 26" fill="none" xmlns="http://www.w3.org/2000/svg">
<path d="M1.5 16.5V9C1.5 8.44772 1.94772 8 2.5 8C3.05228 8 3.5 8.44772 3.5 9V16.5C3.5 17.0523 3.05228 17.5 2.5 17.5C1.94772 17.5 1.5 17.0523 1.5 16.5Z" stroke="#A2A2A2" stroke-width="2" stroke-linecap="round"/>
<path d="M22.1396 6.12613L5.19674 12.0561C4.30387 12.3686 4.30387 13.6314 5.19674 13.9439L22.1396 19.8739C22.3456 19.946 22.5731 19.8537 22.6708 19.6585C24.7666 15.4669 24.7666 10.5331 22.6708 6.34151C22.5731 6.14628 22.3456 6.05403 22.1396 6.12613Z" stroke="#A2A2A2" stroke-width="2" stroke-linecap="round"/>
</svg>
