<svg width="140" height="114" viewBox="0 0 140 114" fill="none" xmlns="http://www.w3.org/2000/svg">
<path d="M130.532 7.53857V9.34424H131.993V104.656H130.532V106.461H9.46777V104.472H8.00684V9.53662H9.46777V7.53857H130.532Z" stroke="white" stroke-width="4"/>
<rect x="2" y="2" width="7.08911" height="7.07692" stroke="white" stroke-width="4"/>
<rect x="2" y="104.923" width="7.08911" height="7.07692" stroke="white" stroke-width="4"/>
<rect x="130.911" y="104.923" width="7.08911" height="7.07692" stroke="white" stroke-width="4"/>
<rect x="130.911" y="2" width="7.08911" height="7.07692" stroke="white" stroke-width="4"/>
<path d="M85.1661 51.369L95.321 77.2607C96.1539 79.3844 99.2361 79.139 99.7244 76.9101L100.902 71.5345C101.748 67.6709 104.761 64.6491 108.623 63.7911L114.55 62.4744C116.805 61.9736 117.009 58.84 114.838 58.0529L88.1029 48.3567C86.2358 47.6796 84.4411 49.5204 85.1661 51.369Z" stroke="white" stroke-width="4"/>
</svg>
