<svg width="26" height="26" viewBox="0 0 26 26" fill="none" xmlns="http://www.w3.org/2000/svg">
<path d="M21.5 20.5V24.5981L22.3494 24.225C23.4272 23.7516 24.347 22.9795 25 22V6C17.32 2.8 8.68 2.8 1 6V22C1.653 22.9795 2.57276 23.7516 3.65058 24.225L4.5 24.5981V20.5M1 6C1.63096 7.26191 2.80918 8.16184 4.19265 8.43853L4.5 8.5V20.5M25 6C24.369 7.26191 23.1908 8.16184 21.8074 8.43853L21.5 8.5V20.5M4.5 20.5C9.9449 18.258 16.0551 18.258 21.5 20.5" stroke="white" stroke-width="2" stroke-linecap="round" stroke-linejoin="round"/>
<path d="M4.5 17.5L10 11.5L12.5 14.5L16.5 9.5L22 13" stroke="white" stroke-width="2"/>
</svg>
