<svg width="26" height="26" viewBox="0 0 26 26" fill="none" xmlns="http://www.w3.org/2000/svg">
<path d="M13 2C19.0751 2 24 6.92487 24 13C24 19.0751 19.0751 24 13 24C6.92487 24 2 19.0751 2 13C2 6.92487 6.92487 2 13 2Z" stroke="white" stroke-width="2"/>
<path d="M12.5159 17.4196C12.871 17.4196 13.1892 17.5476 13.4417 17.7899C13.7082 18.0388 13.8401 18.3612 13.8401 18.7146C13.8401 18.8895 13.804 19.0611 13.7279 19.2228C13.6623 19.3616 13.575 19.4879 13.4703 19.6006L13.4615 19.6103L13.4516 19.62C13.3295 19.7393 13.1875 19.8304 13.0322 19.8956C12.8685 19.9642 12.6948 20 12.5159 20C12.3369 20 12.1633 19.9642 11.9996 19.8956L11.9853 19.8902C11.838 19.8237 11.7053 19.7326 11.5901 19.62L11.5802 19.6103L11.5714 19.6006C11.4667 19.4879 11.3794 19.3617 11.3138 19.2228C11.2377 19.0611 11.2016 18.8895 11.2016 18.7146C11.2016 18.3693 11.3227 18.0493 11.5791 17.7985C11.8332 17.5501 12.1562 17.4196 12.5159 17.4196ZM13.4901 6C14.1079 6.00006 14.6929 6.11601 15.2392 6.35094C15.7844 6.57622 16.2667 6.89065 16.678 7.29289C17.0892 7.69507 17.4108 8.16465 17.6411 8.69773C17.8815 9.23833 18 9.81425 18 10.4201C18 11.0226 17.8797 11.5954 17.6367 12.1318L17.6356 12.1339C17.3978 12.6518 17.0732 13.1093 16.6636 13.5022L16.6603 13.5065C16.2498 13.8928 15.7711 14.197 15.2304 14.4205L15.2249 14.4226C14.748 14.6131 14.2442 14.7191 13.718 14.7445V15.6584C13.718 15.9731 13.6054 16.2622 13.3811 16.4938C13.1537 16.7285 12.8576 16.8544 12.5258 16.8544C12.1946 16.8544 11.8953 16.7342 11.6606 16.5046L11.6496 16.4938C11.4255 16.2623 11.3127 15.9729 11.3127 15.6584V13.5851C11.3128 13.2655 11.433 12.974 11.6705 12.7486C11.9007 12.5235 12.195 12.3988 12.5258 12.3988H13.5C13.7936 12.3987 14.0646 12.3459 14.3179 12.2427C14.5813 12.1353 14.8013 11.9941 14.9839 11.8207L15.1193 11.6797C15.246 11.5335 15.3481 11.3716 15.4275 11.1931L15.4297 11.1877C15.5384 10.9497 15.5937 10.6956 15.5937 10.4201C15.5937 10.125 15.5391 9.85702 15.4341 9.61061L15.433 9.60631C15.3255 9.34887 15.1785 9.136 14.9938 8.9604L14.9828 8.94963C14.8011 8.76694 14.5846 8.62259 14.3278 8.51795L14.319 8.51472C14.0692 8.40784 13.7981 8.3522 13.5 8.35217C13.2145 8.35217 12.9517 8.40509 12.7063 8.50719L12.6964 8.51042C12.4456 8.6096 12.2266 8.74902 12.036 8.93026C11.8532 9.10384 11.6991 9.31774 11.5769 9.57832C11.4699 9.81442 11.4107 10.0797 11.4052 10.3803V10.4201C11.4052 10.7297 11.2954 11.014 11.0783 11.2437C10.854 11.4887 10.5555 11.6161 10.223 11.6161C9.89115 11.6161 9.58689 11.5001 9.34785 11.2663L9.33684 11.2555C9.11268 11.024 9 10.7347 9 10.4201V10.3545C9.00767 9.75423 9.13125 9.1835 9.37317 8.64929C9.60975 8.12693 9.92924 7.66626 10.3319 7.27243L10.3352 7.2692C10.7435 6.87746 11.2142 6.56833 11.7432 6.34341L11.7465 6.34233C12.2934 6.11315 12.8768 6 13.4901 6Z" fill="white"/>
</svg>
