<svg width="26" height="26" viewBox="0 0 26 26" fill="none" xmlns="http://www.w3.org/2000/svg">
<path d="M12.5685 13.4188L2.16625 7.58083C2.09594 7.54137 2.09884 7.4392 2.17127 7.40379L13.0394 2.08989C13.1549 2.03344 13.2904 2.0359 13.4037 2.09649L23.8315 7.67184C23.9027 7.70989 23.9018 7.81222 23.83 7.84902L12.9466 13.4259C12.8273 13.4871 12.6853 13.4844 12.5685 13.4188Z" stroke="white" stroke-width="2" stroke-linecap="round"/>
<path d="M2 12.7256L12.5685 18.6569C12.6853 18.7225 12.8273 18.7252 12.9466 18.664L24 13" stroke="white" stroke-width="2" stroke-linecap="round"/>
<path d="M2 17.9637L12.5685 23.895C12.6853 23.9606 12.8273 23.9632 12.9466 23.9021L24 18.2381" stroke="white" stroke-width="2" stroke-linecap="round"/>
</svg>
