<svg width="26" height="26" viewBox="0 0 26 26" fill="none" xmlns="http://www.w3.org/2000/svg">
<path d="M12.875 21C11.3175 21 9.79493 20.5308 8.49989 19.6518C7.20485 18.7727 6.19549 17.5233 5.59945 16.0615C5.00341 14.5997 4.84746 12.9911 5.15132 11.4393C5.45518 9.88743 6.2052 8.46197 7.30654 7.34315C8.40788 6.22433 9.81107 5.4624 11.3387 5.15372C12.8663 4.84504 14.4497 5.00347 15.8886 5.60897C17.3276 6.21447 18.5575 7.23985 19.4228 8.55544C20.2881 9.87103 20.75 12.0107 20.1875 13.5714" stroke="white" stroke-width="2.2" stroke-linecap="round"/>
<path d="M18.4858 18.4444C18.5988 18.7892 19.0269 18.9057 19.2945 18.6645L24.2885 14.163C24.5823 13.8983 24.4642 13.41 24.0813 13.3058L16.9778 11.3722C16.5948 11.2679 16.2523 11.6308 16.3763 12.0093L18.4858 18.4444Z" fill="white"/>
</svg>
