<svg width="26" height="26" viewBox="0 0 26 26" fill="none" xmlns="http://www.w3.org/2000/svg">
<g clip-path="url(#clip0_1_7085)">
<path d="M4 5H11.5264L16.6328 9.17383C16.8651 9.36372 17 9.64818 17 9.94824V22C17 22.5523 16.5523 23 16 23H4C3.44772 23 3 22.5523 3 22V6C3 5.44772 3.44772 5 4 5Z" stroke="white" stroke-width="2"/>
<path d="M22.8885 1V9C22.8885 9.55229 22.4242 10 21.8515 10C21.2788 10 20.8145 9.55229 20.8145 9V1C20.8145 0.447715 21.2788 0 21.8515 0C22.4242 0 22.8885 0.447715 22.8885 1Z" fill="white"/>
<path d="M22.2843 10.3675C22.0793 10.667 21.6236 10.667 21.4187 10.3675L18.7897 6.52537C18.5622 6.19294 18.8095 5.75 19.2225 5.75L24.4805 5.75C24.8935 5.75 25.1407 6.19294 24.9133 6.52537L22.2843 10.3675Z" fill="white"/>
</g>
<defs>
<clipPath id="clip0_1_7085">
<rect width="26" height="26" fill="white"/>
</clipPath>
</defs>
</svg>
