<svg width="26" height="26" viewBox="0 0 26 26" fill="none" xmlns="http://www.w3.org/2000/svg">
<g clip-path="url(#clip0_1_7034)">
<path d="M8.7998 9.80005L2.96887 4.3031" stroke="white" stroke-width="2" stroke-linecap="round"/>
<path d="M8.7998 18.2002L2.96887 23.6971" stroke="white" stroke-width="2" stroke-linecap="round"/>
<path d="M17.2002 18.2002L23.0311 23.6971" stroke="white" stroke-width="2" stroke-linecap="round"/>
<path d="M17.2002 9.79996L23.0311 4.30301" stroke="white" stroke-width="2" stroke-linecap="round"/>
<path d="M9.79102 11.3814C10.1425 11.4534 10.4533 11.1427 10.3812 10.7912L9.17207 4.89126C9.09211 4.50109 8.61032 4.35647 8.3287 4.63809L3.63791 9.32887C3.35629 9.61049 3.50092 10.0923 3.89108 10.1722L9.79102 11.3814Z" fill="white"/>
<path d="M9.79102 16.6188C10.1425 16.5468 10.4533 16.8575 10.3812 17.2091L9.17207 23.109C9.09211 23.4991 8.61032 23.6438 8.3287 23.3622L3.63791 18.6714C3.35629 18.3898 3.50092 17.908 3.89108 17.828L9.79102 16.6188Z" fill="white"/>
<path d="M16.209 16.6188C15.8575 16.5468 15.5467 16.8575 15.6188 17.2091L16.8279 23.109C16.9079 23.4991 17.3897 23.6438 17.6713 23.3622L22.3621 18.6714C22.6437 18.3898 22.4991 17.908 22.1089 17.828L16.209 16.6188Z" fill="white"/>
<path d="M16.209 11.3813C15.8575 11.4533 15.5467 11.1426 15.6188 10.7911L16.8279 4.89117C16.9079 4.501 17.3897 4.35638 17.6713 4.638L22.3621 9.32878C22.6437 9.6104 22.4991 10.0922 22.1089 10.1722L16.209 11.3813Z" fill="white"/>
</g>
<defs>
<clipPath id="clip0_1_7034">
<rect width="26" height="26" fill="white"/>
</clipPath>
</defs>
</svg>
