<svg width="26" height="26" viewBox="0 0 26 26" fill="none" xmlns="http://www.w3.org/2000/svg">
<g clip-path="url(#clip0_13_9741)">
<g clip-path="url(#clip1_13_9741)">
<path d="M22.2745 12.2485C22.4954 12.2485 22.6794 12.4303 22.6247 12.6444C22.606 12.7177 22.582 12.7897 22.5529 12.8599C22.4726 13.0537 22.3549 13.2299 22.2066 13.3782C22.0582 13.5266 21.8821 13.6443 21.6883 13.7245C21.4944 13.8048 21.2867 13.8462 21.0769 13.8462C20.8671 13.8462 20.6593 13.8048 20.4655 13.7245C20.2717 13.6443 20.0955 13.5266 19.9472 13.3782C19.7988 13.2299 19.6811 13.0537 19.6009 12.8599C19.5718 12.7897 19.5478 12.7177 19.5291 12.6444C19.4743 12.4303 19.6583 12.2485 19.8792 12.2485L21.0769 12.2485H22.2745Z" fill="white"/>
<path d="M21.0769 1C23.1716 1.00004 24.8699 2.69823 24.8699 4.79297C24.8698 6.24453 24.0545 7.50717 22.8523 8.14551C22.2273 8.47736 21.6746 9.14785 21.6746 10.0205V10.1836H20.4792V10.0205C20.4792 9.1479 19.9264 8.47738 19.3015 8.14551C18.0993 7.50717 17.284 6.24453 17.2839 4.79297C17.2839 2.69821 18.9821 1 21.0769 1Z" stroke="white" stroke-width="2"/>
</g>
<path d="M13 12.5417L18 10.6667M13 12.5417V19M13 12.5417L8 10.6667M8 10.6667V17.125L13 19L18 16.9167V10.6667L13 9L8 10.6667Z" stroke="white" stroke-width="2" stroke-linecap="round" stroke-linejoin="round"/>
<path d="M1 0V1M26 25H25M9 21V25M9 25H5H1V21V17M9 25H13H17M17 21V25M17 25H21H25M25 21V25M5 17H1M1 17V13V9M5 9H1M1 9V5V1M5 1H1" stroke="white" stroke-width="2"/>
</g>
<defs>
<clipPath id="clip0_13_9741">
<rect width="26" height="26" fill="white"/>
</clipPath>
<clipPath id="clip1_13_9741">
<rect width="13.8462" height="13.8462" fill="white" transform="translate(14.1538)"/>
</clipPath>
</defs>
</svg>
