<svg width="26" height="26" viewBox="0 0 26 26" fill="none" xmlns="http://www.w3.org/2000/svg">
<g clip-path="url(#clip0_1_7023)">
<path d="M21.2769 15.9231C21.4978 15.9231 21.6808 16.1038 21.6385 16.3206C21.612 16.4564 21.572 16.5895 21.5188 16.7179C21.4144 16.9699 21.2615 17.1988 21.0686 17.3917C20.8757 17.5846 20.6468 17.7375 20.3948 17.8419C20.1428 17.9463 19.8727 18 19.6 18C19.3272 18 19.0572 17.9463 18.8052 17.8419C18.5532 17.7375 18.3242 17.5846 18.1314 17.3917C17.9385 17.1988 17.7855 16.9699 17.6812 16.7179C17.628 16.5895 17.5879 16.4564 17.5615 16.3206C17.5192 16.1038 17.7022 15.9231 17.9231 15.9231L19.6 15.9231H21.2769Z" fill="white"/>
<path d="M19.5997 1C22.4885 1 24.831 3.34173 24.8312 6.23047C24.8312 8.29602 23.6336 10.0839 21.8907 10.9346C21.2259 11.259 20.6769 11.9463 20.6769 12.8145V13.5381H18.5236V12.8145C18.5236 11.9463 17.9745 11.259 17.3097 10.9346C15.5667 10.084 14.3693 8.29614 14.3693 6.23047C14.3694 3.34183 16.7111 1.00016 19.5997 1Z" stroke="white" stroke-width="2"/>
<path d="M7.5 16.6042L14 14.1667M7.5 16.6042V25M7.5 16.6042L1 14.1667M1 14.1667V22.5625L7.5 25L14 22.2917V14.1667L7.5 12L1 14.1667Z" stroke="white" stroke-width="2" stroke-linecap="round" stroke-linejoin="round"/>
<path d="M1 7V1H7" stroke="white" stroke-width="2" stroke-linecap="round" stroke-linejoin="round"/>
<path d="M25 19L25 25L19 25" stroke="white" stroke-width="2" stroke-linecap="round" stroke-linejoin="round"/>
</g>
<defs>
<clipPath id="clip0_1_7023">
<rect width="26" height="26" fill="white"/>
</clipPath>
</defs>
</svg>
