<svg width="26" height="26" viewBox="0 0 26 26" fill="none" xmlns="http://www.w3.org/2000/svg">
<g clip-path="url(#clip0_1_7144)">
<path d="M1 4C0.447715 4 0 4.44772 0 5C0 5.55228 0.447715 6 1 6V5V4ZM18 6H19V4H18V5V6ZM1 5V6H18V5V4H1V5Z" fill="white"/>
<path d="M1 21C0.447715 21 0 21.4477 0 22C0 22.5523 0.447715 23 1 23V22V21ZM18 23H19V21H18V22V23ZM1 22V23H18V22V21H1V22Z" fill="white"/>
<path d="M8 13L25 13" stroke="white" stroke-width="2" stroke-linecap="round"/>
<circle cx="22" cy="5" r="3" stroke="white" stroke-width="2"/>
<circle cx="22" cy="22" r="3" stroke="white" stroke-width="2"/>
<circle cx="4" cy="4" r="3" transform="matrix(-1 0 0 1 8 9)" stroke="white" stroke-width="2"/>
</g>
<defs>
<clipPath id="clip0_1_7144">
<rect width="26" height="26" fill="white"/>
</clipPath>
</defs>
</svg>
