<svg width="26" height="26" viewBox="0 0 26 26" fill="none" xmlns="http://www.w3.org/2000/svg">
<g clip-path="url(#clip0_1_7058)">
<mask id="path-1-inside-1_1_7058" fill="white">
<path fill-rule="evenodd" clip-rule="evenodd" d="M10.5816 5.29465C10.8394 5.55248 11.2162 5.64484 11.5726 5.56788C12.2217 5.42772 12.8892 5.36307 13.5622 5.37636C14.7085 5.39901 15.8483 5.64665 16.9161 6.10625C17.8314 6.50025 18.6788 7.04341 19.4227 7.71105C19.6279 7.89549 19.6267 8.21263 19.4317 8.4078L8.03651 19.803C7.84133 19.998 7.52418 19.9991 7.33976 19.794C6.67213 19.0501 6.12896 18.2027 5.73496 17.2874C5.27537 16.2196 5.02772 15.0798 5.00506 13.9335C4.99177 13.2598 5.05662 12.5916 5.19709 11.9419C5.27416 11.5855 5.18182 11.2086 4.92393 10.9507L0.638127 6.6649C0.247603 6.27437 0.247603 5.64121 0.638127 5.25068L4.88077 1.00804C5.27129 0.617517 5.90446 0.617518 6.29498 1.00804L10.5816 5.29465Z"/>
</mask>
<path d="M13.5622 5.37636L13.6017 3.37675L13.6016 3.37675L13.5622 5.37636ZM16.9161 6.10625L17.7068 4.26922L17.7068 4.2692L16.9161 6.10625ZM19.4227 7.71105L20.7598 6.22372L20.7585 6.22257L19.4227 7.71105ZM19.4317 8.4078L20.8459 9.82202L20.8464 9.82154L19.4317 8.4078ZM8.03651 19.803L9.44995 21.218L9.45072 21.2172L8.03651 19.803ZM7.33976 19.794L5.85128 21.1298L5.85245 21.1311L7.33976 19.794ZM5.73496 17.2874L3.89791 18.0781L3.89793 18.0781L5.73496 17.2874ZM5.00506 13.9335L3.00545 13.9729L3.00545 13.973L5.00506 13.9335ZM5.19709 11.9419L7.15192 12.3646L5.19709 11.9419ZM11.5726 5.56788L11.9947 7.52282L11.5726 5.56788ZM11.5726 5.56788L11.9947 7.52282C12.4913 7.4156 13.0039 7.36573 13.5227 7.37597L13.5622 5.37636L13.6016 3.37675C12.7745 3.36042 11.9521 3.43984 11.1505 3.61294L11.5726 5.56788ZM13.5622 5.37636L13.5227 7.37597C14.4075 7.39345 15.2924 7.58478 16.1254 7.9433L16.9161 6.10625L17.7068 4.2692C16.4042 3.70853 15.0095 3.40456 13.6017 3.37675L13.5622 5.37636ZM16.9161 6.10625L16.1253 7.94329C16.8396 8.25075 17.5032 8.67569 18.0869 9.19954L19.4227 7.71105L20.7585 6.22257C19.8544 5.41114 18.8232 4.74976 17.7068 4.26922L16.9161 6.10625ZM19.4227 7.71105L18.0856 9.19839C17.3842 8.56783 17.4545 7.55696 18.017 6.99407L19.4317 8.4078L20.8464 9.82154C21.799 8.8683 21.8716 7.22316 20.7598 6.22372L19.4227 7.71105ZM19.4317 8.4078L18.0175 6.99359L6.62229 18.3888L8.03651 19.803L9.45072 21.2172L20.8459 9.82202L19.4317 8.4078ZM8.03651 19.803L6.62307 18.388C7.1856 17.8261 8.19625 17.7552 8.82707 18.4569L7.33976 19.794L5.85245 21.1311C6.85211 22.2431 8.49706 22.1698 9.44995 21.218L8.03651 19.803ZM7.33976 19.794L8.82824 18.4582C8.30441 17.8745 7.87945 17.2109 7.57199 16.4966L5.73496 17.2874L3.89793 18.0781C4.37846 19.1945 5.03985 20.2257 5.85128 21.1298L7.33976 19.794ZM5.73496 17.2874L7.57201 16.4967C7.21349 15.6637 7.02216 14.7788 7.00467 13.8939L5.00506 13.9335L3.00545 13.973C3.03328 15.3808 3.33724 16.7755 3.89791 18.0781L5.73496 17.2874ZM5.00506 13.9335L7.00467 13.894C6.99443 13.3748 7.04444 12.8617 7.15192 12.3646L5.19709 11.9419L3.24225 11.5193C3.06879 12.3216 2.98911 13.1449 3.00545 13.9729L5.00506 13.9335ZM4.92393 10.9507L6.33814 9.53649L2.05234 5.25068L0.638127 6.6649L-0.776087 8.07911L3.50972 12.3649L4.92393 10.9507ZM0.638127 5.25068L2.05234 6.6649L6.29498 2.42226L4.88077 1.00804L3.46655 -0.406172L-0.776086 3.83647L0.638127 5.25068ZM6.29498 1.00804L4.88077 2.42226L9.16738 6.70887L10.5816 5.29465L11.9958 3.88044L7.70919 -0.406172L6.29498 1.00804ZM4.88077 1.00804L6.29498 2.42226C5.90446 2.81278 5.27129 2.81278 4.88077 2.42226L6.29498 1.00804L7.70919 -0.406172C6.53762 -1.57774 4.63813 -1.57774 3.46655 -0.406172L4.88077 1.00804ZM5.19709 11.9419L7.15192 12.3646C7.3561 11.4202 7.1295 10.3278 6.33814 9.53649L4.92393 10.9507L3.50972 12.3649C3.23414 12.0893 3.19222 11.7507 3.24225 11.5193L5.19709 11.9419ZM0.638127 6.6649L2.05234 5.25068C2.44287 5.64121 2.44286 6.27437 2.05234 6.6649L0.638127 5.25068L-0.776086 3.83647C-1.94766 5.00804 -1.94766 6.90754 -0.776087 8.07911L0.638127 6.6649ZM11.5726 5.56788L11.1505 3.61294C11.3818 3.56298 11.7203 3.60492 11.9958 3.88044L10.5816 5.29465L9.16738 6.70887C9.95855 7.50003 11.0506 7.72669 11.9947 7.52282L11.5726 5.56788Z" fill="white" mask="url(#path-1-inside-1_1_7058)"/>
<path d="M24.0426 15.1506H20.437" stroke="white" stroke-width="2" stroke-linecap="round"/>
<path d="M14.8403 24.7402V20.7473" stroke="white" stroke-width="2" stroke-linecap="round"/>
<path d="M21.1899 21.5045L18.3157 18.6862" stroke="white" stroke-width="2" stroke-linecap="round"/>
<path d="M17.3257 12.605C17.4819 12.4488 17.7385 12.4473 17.8649 12.6286C18.0143 12.8429 18.1288 13.085 18.205 13.3493C18.3202 13.7488 18.3457 14.191 18.2801 14.6506C18.2144 15.1102 18.0589 15.5783 17.8223 16.0281C17.5858 16.4778 17.2728 16.9005 16.9014 17.2719C16.53 17.6434 16.1073 17.9563 15.6575 18.1929C15.2078 18.4294 14.7397 18.585 14.2801 18.6506C13.8204 18.7163 13.3783 18.6908 12.9787 18.5755C12.7145 18.4993 12.4723 18.3848 12.258 18.2354C12.0768 18.1091 12.0783 17.8524 12.2345 17.6962L14.7801 15.1506L17.3257 12.605Z" fill="white"/>
</g>
<defs>
<clipPath id="clip0_1_7058">
<rect width="26" height="26" fill="white"/>
</clipPath>
</defs>
</svg>
