<svg width="26" height="26" viewBox="0 0 26 26" fill="none" xmlns="http://www.w3.org/2000/svg">
<g clip-path="url(#clip0_15_9853)">
<path d="M24.0002 5C25.1046 5.0002 26.0002 5.89555 26.0002 7V21C26.0002 22.1044 25.1046 22.9998 24.0002 23H7.00024L6.79614 22.9893C5.78748 22.887 5.00026 22.0356 5.00024 21V18H7.00024V20.2939L8.69751 18H11.1838L8.96509 21H13.0881C13.112 20.8334 13.1775 20.6706 13.2883 20.5283L15.2571 18H17.7922L15.4553 21H19.7151L24.0002 15.626V10.0293L21.0002 13.8809V10.626L23.8245 7H21.0002V5H24.0002ZM22.2727 21H24.0002V18.834L22.2727 21Z" fill="white"/>
<rect x="1" y="1" width="19" height="16" rx="1" stroke="white" stroke-width="2"/>
<path d="M16.6402 5.76822C17.0645 5.41466 17.1218 4.78409 16.7682 4.35982C16.4147 3.93554 15.7841 3.87821 15.3598 4.23178L16 5L16.6402 5.76822ZM10 10L10.6402 10.7682L16.6402 5.76822L16 5L15.3598 4.23178L9.35982 9.23178L10 10Z" fill="#EDEDED"/>
<path d="M7.36753 9.9995C8.03822 9.40985 8.82098 9.42927 9.41865 9.7451C10.0559 10.082 10.3454 10.6605 10.2337 11.1098C9.90969 12.1867 9.08867 12.6487 8.05351 12.7946C7.2329 12.9101 6.33104 12.8126 5.57606 12.6691C6.09117 12.2797 6.41172 11.7804 6.65051 11.3241C6.79041 11.0567 6.9469 10.711 7.04919 10.5072C7.166 10.2744 7.26547 10.1112 7.36753 9.9995Z" fill="#EDEDED" stroke="#EDEDED"/>
</g>
<defs>
<clipPath id="clip0_15_9853">
<rect width="26" height="26" fill="white"/>
</clipPath>
</defs>
</svg>
